<?xml version="1.0" standalone="no"?><!DOCTYPE svg PUBLIC "-//W3C//DTD SVG 1.1//EN" "http://www.w3.org/Graphics/SVG/1.1/DTD/svg11.dtd"><svg t="1639556631052" class="icon" viewBox="0 0 1024 1024" version="1.1" xmlns="http://www.w3.org/2000/svg" p-id="12402" xmlns:xlink="http://www.w3.org/1999/xlink" width="200" height="200"><defs><style type="text/css"></style></defs><path d="M0 512c0 282.773333 229.226667 512 512 512s512-229.226667 512-512S794.773333 0 512 0 0 229.226667 0 512z" fill="#C03854" p-id="12403"></path><path d="M221.866667 350.72v71.232c0 18.986667 14.229333 28.48 28.48 28.48h218.474666v-128.213333h-218.453333c-14.272 0-28.501333 14.229333-28.501333 28.48zM772.778667 322.218667h-218.453334v132.970666h218.453334c18.986667 0 28.501333-14.250667 28.501333-28.501333V350.72c0-14.250667-14.250667-28.48-28.501333-28.48z m-527.168 451.2c0 37.973333 33.237333 71.232 71.232 71.232h151.978666V493.184H245.610667v280.213333zM554.304 844.650667h151.978667c38.016 0 71.253333-33.258667 71.253333-71.253334V488.448H554.304v356.202667zM492.586667 236.714667s-94.976-56.981333-99.733334-56.981334c-4.736 0-18.986667-4.757333-23.744 9.493334-4.757333 14.250667-14.250667 47.488-4.757333 66.496 0 18.986667 23.765333 14.229333 28.501333 14.229333h94.997334c4.736 0 14.229333 0 18.986666-9.493333 4.757333-9.493333-14.250667-18.986667-14.250666-23.744z m137.749333 33.237333c4.736 0 23.744 4.757333 28.48-14.229333 4.757333-18.986667 0-52.266667-4.736-66.496-4.757333-14.250667-18.986667-9.493333-23.744-9.493334-4.757333 0-99.754667 56.981333-99.754667 56.981334-4.736 4.757333-14.250667 14.250667-9.493333 23.744 0 9.493333 14.250667 9.493333 18.986667 9.493333h90.24z" fill="#FFFFFF" p-id="12404"></path></svg>